dataset
version=1
nRows=19
nColumns=39
inDegrees=no
endheader
time	sternoclavicular_r2	sternoclavicular_r3	unrotscap_r3	unrotscap_r2	acromioclavicular_r2	acromioclavicular_r3	acromioclavicular_r1	unrothum_r1	unrothum_r3	unrothum_r2	elv_angle	shoulder_elv	shoulder1_r2	shoulder_rot	elbow_flexion	pro_sup	deviation	flexion	cmc_abduction	cmc_flexion	mp_flexion	ip_flexion	mcp2_flexion	mcp2_abduction	pm2_flexion	md2_flexion	mcp3_flexion	mcp3_abduction	pm3_flexion	md3_flexion	mcp4_flexion	mcp4_abduction	pm4_flexion	md4_flexion	mcp5_flexion	mcp5_abduction	pm5_flexion	md5_flexion
4.800000	-0.049355	-0.578456	0.581787	0.202274	0.133052	0.332162	-0.451068	0.278422	-0.192008	0.112336	0.094737	0.027437	0.146525	0.146525	1.342990	4.208624	0.000000	0.000000	0.000000	0.000000	0.000000	0.000000	0.000000	0.000000	0.000000	0.000000	0.000000	0.000000	0.000000	0.000000	0.000000	0.000000	0.000000	0.000000	0.000000	0.000000	0.000000	0.000000
4.805000	-0.049436	-0.577478	0.581053	0.201712	0.132807	0.330543	-0.451063	0.277192	-0.192205	0.112746	0.094809	0.027437	0.146525	0.146525	1.340379	4.203189	0.000000	0.000000	0.000000	0.000000	0.000000	0.000000	0.000000	0.000000	0.000000	0.000000	0.000000	0.000000	0.000000	0.000000	0.000000	0.000000	0.000000	0.000000	0.000000	0.000000	0.000000	0.000000
4.810000	-0.049478	-0.576435	0.580123	0.201088	0.132527	0.328800	-0.450917	0.275814	-0.192201	0.113210	0.094962	0.027437	0.146525	0.146525	1.337737	4.197538	0.000000	0.000000	0.000000	0.000000	0.000000	0.000000	0.000000	0.000000	0.000000	0.000000	0.000000	0.000000	0.000000	0.000000	0.000000	0.000000	0.000000	0.000000	0.000000	0.000000	0.000000	0.000000
4.815000	-0.049482	-0.575329	0.578998	0.200401	0.132208	0.326930	-0.450631	0.274285	-0.191991	0.113729	0.095197	0.027437	0.146525	0.146525	1.335072	4.191666	0.000000	0.000000	0.000000	0.000000	0.000000	0.000000	0.000000	0.000000	0.000000	0.000000	0.000000	0.000000	0.000000	0.000000	0.000000	0.000000	0.000000	0.000000	0.000000	0.000000	0.000000	0.000000
4.820000	-0.049446	-0.574160	0.577676	0.199648	0.131849	0.324932	-0.450204	0.272602	-0.191573	0.114302	0.095513	0.027437	0.146525	0.146525	1.332388	4.185567	0.000000	0.000000	0.000000	0.000000	0.000000	0.000000	0.000000	0.000000	0.000000	0.000000	0.000000	0.000000	0.000000	0.000000	0.000000	0.000000	0.000000	0.000000	0.000000	0.000000	0.000000	0.000000
4.825000	-0.049369	-0.572929	0.576157	0.198826	0.131448	0.322806	-0.449637	0.270765	-0.190943	0.114929	0.095910	0.027437	0.146525	0.146525	1.329694	4.179234	0.000000	0.000000	0.000000	0.000000	0.000000	0.000000	0.000000	0.000000	0.000000	0.000000	0.000000	0.000000	0.000000	0.000000	0.000000	0.000000	0.000000	0.000000	0.000000	0.000000	0.000000	0.000000
4.830000	-0.049251	-0.571637	0.574442	0.197934	0.131004	0.320551	-0.448931	0.268771	-0.190100	0.115609	0.096388	0.027437	0.146525	0.146525	1.326995	4.172661	0.000000	0.000000	0.000000	0.000000	0.000000	0.000000	0.000000	0.000000	0.000000	0.000000	0.000000	0.000000	0.000000	0.000000	0.000000	0.000000	0.000000	0.000000	0.000000	0.000000	0.000000	0.000000
4.835000	-0.049091	-0.570287	0.572532	0.196971	0.130514	0.318168	-0.448087	0.266621	-0.189042	0.116340	0.096946	0.027437	0.146525	0.146525	1.324298	4.165842	0.000000	0.000000	0.000000	0.000000	0.000000	0.000000	0.000000	0.000000	0.000000	0.000000	0.000000	0.000000	0.000000	0.000000	0.000000	0.000000	0.000000	0.000000	0.000000	0.000000	0.000000	0.000000
4.840000	-0.048890	-0.568879	0.570431	0.195937	0.129978	0.315657	-0.447109	0.264314	-0.187770	0.117121	0.097582	0.027437	0.146525	0.146525	1.321608	4.158770	0.000000	0.000000	0.000000	0.000000	0.000000	0.000000	0.000000	0.000000	0.000000	0.000000	0.000000	0.000000	0.000000	0.000000	0.000000	0.000000	0.000000	0.000000	0.000000	0.000000	0.000000	0.000000
4.845000	-0.048648	-0.567417	0.568142	0.194831	0.129396	0.313023	-0.445998	0.261853	-0.186285	0.117952	0.098295	0.027437	0.146525	0.146525	1.318932	4.151438	0.000000	0.000000	0.000000	0.000000	0.000000	0.000000	0.000000	0.000000	0.000000	0.000000	0.000000	0.000000	0.000000	0.000000	0.000000	0.000000	0.000000	0.000000	0.000000	0.000000	0.000000	0.000000
4.850000	-0.048365	-0.565903	0.565668	0.193653	0.128767	0.310267	-0.444757	0.259240	-0.184590	0.118829	0.099084	0.027437	0.146525	0.146525	1.316276	4.143840	0.000000	0.000000	0.000000	0.000000	0.000000	0.000000	0.000000	0.000000	0.000000	0.000000	0.000000	0.000000	0.000000	0.000000	0.000000	0.000000	0.000000	0.000000	0.000000	0.000000	0.000000	0.000000
4.855000	-0.048043	-0.564340	0.563017	0.192406	0.128091	0.307394	-0.443390	0.256479	-0.182688	0.119751	0.099944	0.027437	0.146525	0.146525	1.313645	4.135969	0.000000	0.000000	0.000000	0.000000	0.000000	0.000000	0.000000	0.000000	0.000000	0.000000	0.000000	0.000000	0.000000	0.000000	0.000000	0.000000	0.000000	0.000000	0.000000	0.000000	0.000000	0.000000
4.860000	-0.047683	-0.562732	0.560195	0.191091	0.127370	0.304409	-0.441903	0.253575	-0.180585	0.120714	0.100874	0.027437	0.146525	0.146525	1.311044	4.127817	0.000000	0.000000	0.000000	0.000000	0.000000	0.000000	0.000000	0.000000	0.000000	0.000000	0.000000	0.000000	0.000000	0.000000	0.000000	0.000000	0.000000	0.000000	0.000000	0.000000	0.000000	0.000000
4.865000	-0.047287	-0.561082	0.557211	0.189711	0.126604	0.301318	-0.440300	0.250536	-0.178290	0.121717	0.101869	0.027437	0.146525	0.146525	1.308480	4.119378	0.000000	0.000000	0.000000	0.000000	0.000000	0.000000	0.000000	0.000000	0.000000	0.000000	0.000000	0.000000	0.000000	0.000000	0.000000	0.000000	0.000000	0.000000	0.000000	0.000000	0.000000	0.000000
4.870000	-0.046856	-0.559396	0.554073	0.188270	0.125796	0.298130	-0.438588	0.247370	-0.175810	0.122756	0.102926	0.027437	0.146525	0.146525	1.305956	4.110644	0.000000	0.000000	0.000000	0.000000	0.000000	0.000000	0.000000	0.000000	0.000000	0.000000	0.000000	0.000000	0.000000	0.000000	0.000000	0.000000	0.000000	0.000000	0.000000	0.000000	0.000000	0.000000
4.875000	-0.046393	-0.557677	0.550795	0.186771	0.124949	0.294853	-0.436773	0.244087	-0.173158	0.123827	0.104039	0.027437	0.146525	0.146525	1.303478	4.101607	0.000000	0.000000	0.000000	0.000000	0.000000	0.000000	0.000000	0.000000	0.000000	0.000000	0.000000	0.000000	0.000000	0.000000	0.000000	0.000000	0.000000	0.000000	0.000000	0.000000	0.000000	0.000000
4.880000	-0.045901	-0.555931	0.547387	0.185219	0.124065	0.291497	-0.434865	0.240698	-0.170345	0.124926	0.105205	0.027437	0.146525	0.146525	1.301051	4.092261	0.000000	0.000000	0.000000	0.000000	0.000000	0.000000	0.000000	0.000000	0.000000	0.000000	0.000000	0.000000	0.000000	0.000000	0.000000	0.000000	0.000000	0.000000	0.000000	0.000000	0.000000	0.000000
4.885000	-0.045384	-0.554165	0.543864	0.183622	0.123147	0.288073	-0.432870	0.237218	-0.167386	0.126050	0.106417	0.027437	0.146525	0.146525	1.298679	4.082598	0.000000	0.000000	0.000000	0.000000	0.000000	0.000000	0.000000	0.000000	0.000000	0.000000	0.000000	0.000000	0.000000	0.000000	0.000000	0.000000	0.000000	0.000000	0.000000	0.000000	0.000000	0.000000
4.890000	-0.044843	-0.552383	0.540240	0.181985	0.122201	0.284592	-0.430799	0.233660	-0.164298	0.127193	0.107669	0.027437	0.146525	0.146525	1.296365	4.072610	0.000000	0.000000	0.000000	0.000000	0.000000	0.000000	0.000000	0.000000	0.000000	0.000000	0.000000	0.000000	0.000000	0.000000	0.000000	0.000000	0.000000	0.000000	0.000000	0.000000	0.000000	0.000000
